<?xml version="1.0" encoding="utf-8"?>
<!-- Generator: Adobe Illustrator 27.3.0, SVG Export Plug-In . SVG Version: 6.00 Build 0)  -->
<svg version="1.1" id="Layer_1" xmlns="http://www.w3.org/2000/svg" xmlns:xlink="http://www.w3.org/1999/xlink" x="0px" y="0px"
	 viewBox="0 0 841.9 595.3" style="enable-background:new 0 0 841.9 595.3;" xml:space="preserve">
<style type="text/css">
	.st0{fill:#FFFFFF;}
</style>
<g>
	<path class="st0" d="M158.5,218.7c-0.7,0-2.2-0.1-4.6-0.2c-2.4-0.1-5.1-0.3-8.2-0.4c-3.1-0.1-6-0.2-8.7-0.2c-1.4,0-2.5,0-3.5,0.1
		c-0.9,0.1-1.9,0.2-3,0.3c-1.1,0.1-2.5,0.2-4.4,0.2c-0.9,0-1.6-0.1-2.2-0.3c-0.6-0.2-0.8-0.6-0.8-1c0-0.6,0.3-0.9,0.8-1.1
		c0.6-0.2,1.4-0.4,2.6-0.6c2.6-0.5,4.4-1.3,5.4-2.4c1-1.1,1.5-2.9,1.5-5.4v-46.6c0-2.5-0.5-4.2-1.5-5.3c-1-1-2.8-1.8-5.4-2.3
		c-1.2-0.2-2-0.4-2.6-0.7c-0.6-0.2-0.8-0.6-0.8-1.2c0-0.5,0.3-0.8,0.8-1c0.6-0.2,1.3-0.3,2.2-0.3c1.8,0,3.2,0,4.3,0.1
		c1.1,0,2.1,0.1,3.2,0.1c1,0,2.4,0.1,4,0.1c1.1,0,2.5,0,4.2-0.1c1.7-0.1,3.4-0.2,5.3-0.3c1.8-0.1,3.5-0.2,5-0.3
		c1.5-0.1,2.6-0.1,3.3-0.1c7,0,13,0.8,18,2.5c5,1.7,9,4,12.1,7c3.1,3,5.4,6.5,6.9,10.4c1.5,4,2.2,8.2,2.2,12.8c0,5-0.9,9.6-2.8,14
		s-4.4,8.2-7.8,11.5c-3.3,3.3-7.1,5.9-11.5,7.8S163.5,218.7,158.5,218.7z M157.3,215.1c5.4,0,10.1-1.3,14.3-3.9
		c4.1-2.6,7.4-6.2,9.7-10.9c2.3-4.6,3.5-9.9,3.5-15.9c0-5-0.8-9.4-2.5-13.3c-1.7-3.9-3.9-7.2-6.6-9.8c-2.8-2.7-5.9-4.7-9.3-6.1
		c-3.4-1.4-6.9-2.1-10.4-2.1c-3,0-5.5,0.1-7.6,0.3c-2.1,0.2-3.7,0.7-4.8,1.6c-1.1,0.9-1.7,2.4-1.7,4.4v46.1c0,2.8,0.8,4.8,2.3,6.2
		c1.5,1.4,3.5,2.3,5.8,2.7C152.2,214.9,154.7,215.1,157.3,215.1z"/>
	<path class="st0" d="M215.3,218.5c-0.9,0-1.6-0.1-2.2-0.3c-0.6-0.2-0.8-0.5-0.8-0.9c0-0.8,1.1-1.4,3.4-1.9c2.6-0.5,4.6-1.3,5.8-2.4
		c1.2-1.1,1.9-2.9,1.9-5.4v-46.6c0-2.5-0.5-4.2-1.5-5.3c-1-1-2.8-1.8-5.4-2.3c-1.2-0.2-2-0.5-2.6-0.8c-0.6-0.3-0.8-0.8-0.8-1.2
		c0-0.4,0.3-0.7,0.8-0.9c0.6-0.2,1.3-0.3,2.2-0.3c2.6,0,4.8,0,6.7,0.1c1.8,0.1,3.6,0.1,5.4,0.2c1.8,0,3.8,0.1,6.3,0.1
		c2.3,0,4.7,0,7.2-0.1c2.5,0,4.8-0.1,7-0.1c2.3-0.1,4.3-0.1,5.9-0.2c1.6,0,2.6-0.1,2.8-0.1c0.3,0,0.7,0.1,1.1,0.2
		c0.4,0.1,0.7,0.4,0.7,0.7c0.3,1.9,0.7,3.8,1,5.7c0.3,1.9,0.5,3.5,0.5,4.9c0,0.6-0.2,1-0.5,1.2c-0.3,0.2-0.6,0.3-1,0.3
		c-0.3,0-0.6-0.1-0.7-0.3c-0.1-0.2-0.3-0.4-0.4-0.8c-0.3-1.2-0.7-2.3-1-3.4c-0.3-1.1-0.8-1.8-1.2-2.3c-1-1.1-2-1.8-3.2-2.2
		c-1.2-0.4-2.4-0.6-3.7-0.6h-13.6c-0.6,0-1.3,0.3-2.3,0.9c-1,0.6-1.4,1.4-1.4,2.4v21.9c0,0.6,0.2,1.2,0.6,1.6
		c0.4,0.4,0.8,0.7,1.3,0.7h10.2c2,0,3.4-0.4,4.1-1.1c0.8-0.7,1.4-2.1,1.9-4c0.4-1.5,1-2.3,1.9-2.3c0.3,0,0.6,0.1,0.9,0.4
		c0.3,0.3,0.5,0.7,0.5,1.2c0,0.3,0,0.9-0.1,1.9c0,1-0.1,2-0.2,3c-0.1,1-0.1,1.8-0.1,2.4c0,0.7,0,1.6,0.1,2.7c0,1.1,0.1,2.2,0.1,3.3
		c0,1,0.1,1.7,0.1,2c0,0.5-0.1,0.9-0.2,1.2c-0.1,0.3-0.4,0.5-0.8,0.5c-1,0-1.8-1.1-2.4-3.3c-0.4-1.6-1-2.8-1.7-3.5
		c-0.7-0.8-1.7-1.1-3.1-1.1h-9.6c-1.2,0-2.1,0.2-2.6,0.5c-0.6,0.3-0.9,1.1-0.9,2.2v19.9c0,2.6,0.6,4.4,1.7,5.4
		c1.1,1,2.8,1.5,5.2,1.5h7.7c2.2,0,4.1-0.1,5.5-0.4c1.5-0.2,2.8-0.7,3.9-1.4c1.1-0.8,2.1-1.8,2.9-3c0.9-1.2,1.8-2.9,2.9-5
		c0.2-0.4,0.4-0.8,0.7-1c0.3-0.3,0.6-0.4,0.9-0.3c0.3,0.1,0.6,0.2,0.8,0.5c0.2,0.2,0.3,0.6,0.3,1c0,0.6-0.2,1.7-0.5,3.3
		c-0.3,1.6-0.8,3.2-1.3,4.8c-0.5,1.7-1,3-1.4,3.9c-0.2,0.5-0.4,0.9-0.6,1.2c-0.2,0.3-0.5,0.5-0.9,0.5c-3.3,0-6.4,0-9.2-0.1
		c-2.8-0.1-5.5-0.1-8.1-0.2c-2.6-0.1-5.1-0.1-7.5-0.2c-2.4-0.1-5-0.1-7.6-0.1c-1.5,0-2.8,0.1-3.9,0.2c-1.1,0.1-2.2,0.2-3.4,0.3
		C218.7,218.4,217.2,218.5,215.3,218.5z"/>
	<path class="st0" d="M298.3,219.6c-2.9,0-5.6-0.4-8-1.3c-2.4-0.9-4.6-2.1-6.6-3.7c-0.3-0.3-0.5-0.6-0.8-0.9
		c-0.2-0.3-0.4-0.7-0.6-1.1c-0.3-1.4-0.6-3.2-0.7-5.4c-0.1-2.2-0.2-4-0.4-5.5c0-0.5,0.2-0.8,0.6-1.1c0.4-0.2,0.9-0.4,1.4-0.4
		c0.3,0,0.7,0.1,1,0.3c0.3,0.2,0.6,0.5,0.6,0.9c1.4,5.3,3.4,9.1,6.2,11.4c2.7,2.3,5.6,3.4,8.5,3.4c2.4,0,4.6-0.5,6.4-1.6
		s3.3-2.5,4.4-4.4c1.1-1.9,1.6-4.1,1.6-6.7c0-2.8-0.5-5.1-1.4-6.9s-2.3-3.3-4-4.6c-1.7-1.3-3.8-2.7-6.3-4.2c-2.7-1.7-5.3-3.5-8-5.2
		c-2.6-1.8-4.8-3.8-6.5-6.1c-1.7-2.3-2.6-5.1-2.6-8.4c0-3.5,0.8-6.7,2.4-9.5c1.6-2.8,4-5.1,7.2-6.8c3.2-1.7,7.2-2.5,12.1-2.5
		c2.5,0,4.6,0.3,6.5,0.8c1.8,0.5,3.3,1,4.4,1.5c0.6,0.2,1,0.6,1.4,1c0.4,0.5,0.6,1,0.8,1.6c0.4,1.4,0.9,3.1,1.3,5
		c0.5,1.9,0.7,3.6,0.7,5.3c0,0.8-0.5,1.1-1.6,1.1c-0.6,0-1.2-0.1-1.8-0.4c-0.6-0.3-0.9-0.6-1.1-1c-1.4-3.7-3.1-6.4-5.1-8.4
		c-1.9-1.9-4.4-2.9-7.3-2.9c-2.1,0-4,0.4-5.8,1.1c-1.8,0.8-3.3,2-4.4,3.7c-1.1,1.7-1.7,4-1.7,6.9c0,2.1,0.7,3.9,2,5.6
		c1.3,1.7,3.1,3.3,5.3,4.8c2.2,1.5,4.6,3.1,7.1,4.7c2.4,1.4,4.8,3,7.1,4.8c2.3,1.7,4.2,3.8,5.7,6.2c1.5,2.4,2.2,5.3,2.2,8.7
		c0,4.1-0.9,7.6-2.8,10.7c-1.9,3.1-4.5,5.4-7.9,7.1C306.8,218.8,302.8,219.6,298.3,219.6z"/>
	<path class="st0" d="M340.6,218.5c-0.9,0-1.6-0.1-2.2-0.3c-0.6-0.2-0.8-0.5-0.8-0.9c0-0.8,1.1-1.4,3.4-1.9c2.6-0.5,4.6-1.3,6-2.4
		c1.4-1.1,2.1-2.9,2.1-5.3v-46.8c0-2.4-0.5-4.1-1.5-5.2c-1-1-2.8-1.8-5.4-2.3c-2.3-0.4-3.4-1.1-3.4-2.1c0-0.4,0.3-0.7,0.8-0.9
		c0.6-0.2,1.3-0.3,2.2-0.3c1.9,0,3.4,0,4.6,0.1c1.2,0.1,2.4,0.1,3.5,0.2c1.1,0,2.4,0.1,4,0.1c1.5,0,2.8,0,3.7-0.1c1,0,2-0.1,3.1-0.2
		c1.1-0.1,2.6-0.1,4.4-0.1c0.9,0,1.6,0.1,2.2,0.3c0.6,0.2,0.8,0.5,0.8,0.9c0,0.5-0.3,0.9-0.8,1.2c-0.6,0.3-1.4,0.6-2.6,0.8
		c-2.6,0.5-4.4,1.2-5.6,2.3c-1.2,1-1.8,2.8-1.8,5.2v46.8c0,2.4,0.7,4.2,2.2,5.3c1.4,1.1,3.4,1.9,6,2.4c1.2,0.2,2,0.4,2.6,0.7
		c0.6,0.3,0.8,0.7,0.8,1.1c0,0.4-0.3,0.7-0.8,0.9c-0.6,0.2-1.3,0.3-2.2,0.3c-1.9,0-3.4-0.1-4.6-0.2c-1.2-0.1-2.4-0.2-3.5-0.3
		c-1.1-0.1-2.4-0.1-4-0.1c-1.7,0-3.2,0-4.5,0.1c-1.3,0.1-2.6,0.2-3.9,0.3C344.1,218.4,342.5,218.5,340.6,218.5z"/>
	<path class="st0" d="M421.7,219.4c-4.8,0-9.3-0.8-13.6-2.5c-4.3-1.7-8.1-4.1-11.5-7.1c-3.3-3-6-6.6-7.9-10.7
		c-1.9-4.1-2.9-8.5-2.9-13.3c0-5.1,1-9.9,3-14.3c2-4.4,4.8-8.3,8.3-11.6s7.6-5.9,12.2-7.8c4.6-1.9,9.5-2.8,14.6-2.8
		c1.2,0,2.8,0.1,4.8,0.4c2,0.2,4.1,0.5,6.3,0.9c2.2,0.3,4.1,0.7,5.9,1.1c1.8,0.4,3,0.7,3.7,1.1c0.3,0.1,0.6,0.3,0.7,0.5
		c0.1,0.2,0.2,0.4,0.3,0.8c0.3,2,0.5,4,0.7,5.9s0.3,3.6,0.3,5c0,0.5-0.2,0.9-0.5,1.4c-0.3,0.4-0.7,0.7-1.1,0.7
		c-0.7,0-1.2-0.3-1.6-0.9s-0.6-1.2-0.8-1.9c-0.4-1.1-0.8-2.1-1.3-2.8c-0.4-0.8-1.1-1.7-1.9-2.6c-0.4-0.6-1.3-1.3-2.6-2.1
		c-1.3-0.9-3.2-1.6-5.4-2.3c-2.3-0.7-5.1-1-8.4-1c-4,0-7.7,0.8-11,2.5c-3.3,1.7-6.2,4-8.5,6.9c-2.4,2.9-4.2,6.3-5.5,10
		c-1.3,3.7-1.9,7.6-1.9,11.7c0,4.9,0.8,9.3,2.3,13.1c1.5,3.9,3.6,7.1,6.1,9.8c2.6,2.7,5.4,4.7,8.7,6.1c3.2,1.4,6.6,2.1,10,2.1
		c4,0,6.9-0.5,8.8-1.4c1.9-1,3.2-1.8,3.8-2.4c0.8-0.8,1.5-1.8,2.1-3.2c0.7-1.4,1-3,1-4.8c0-0.6,0-1.3,0.1-2c0-0.7,0.1-1.4,0.1-2.1
		c0-0.7,0.1-1.3,0.1-2c0-0.8,0-1.4-0.1-1.9c-0.1-0.5-0.2-0.9-0.4-1.2c-0.6-0.8-1.5-1.4-2.9-1.9c-1.4-0.5-2.8-0.8-4.1-1
		c-1.4-0.2-2.4-0.3-3.1-0.3c-0.3,0-0.7-0.2-1.2-0.5c-0.6-0.3-0.8-0.8-0.8-1.2c0-0.6,0.3-1,0.8-1.3c0.6-0.3,1-0.5,1.2-0.5
		c1.7,0,3.2,0,4.4,0.1c1.2,0.1,2.5,0.1,3.8,0.2c1.3,0.1,2.9,0.1,4.8,0.1c1.8,0,3.3-0.1,4.6-0.2c1.2-0.1,2.8-0.2,4.7-0.2
		c0.3,0,0.7,0.1,1.3,0.3c0.6,0.2,0.9,0.7,0.9,1.3c0,0.5-0.3,0.9-0.9,1.2c-0.6,0.3-1,0.6-1.3,0.6c-1.5,0.4-2.6,1-3.2,1.8
		c-0.6,0.8-1,1.9-1.2,3.3c-0.2,1.5-0.3,2.9-0.4,4c-0.1,1.2-0.1,2.4-0.1,3.7v2.8c0,0.3,0.1,0.6,0.2,0.8c0.1,0.2,0.3,0.5,0.4,0.8
		c0.2,0.3,0.5,0.7,0.8,0.9c0.3,0.3,0.5,0.6,0.5,0.8c0,0.3-0.1,0.6-0.2,1.1c-0.1,0.4-0.5,0.7-1.3,0.9c-0.5,0.1-1.4,0.5-2.8,1.2
		c-1.4,0.7-3.2,1.5-5.3,2.4c-2.1,0.9-4.6,1.7-7.3,2.3C428,219.1,425,219.4,421.7,219.4z"/>
	<path class="st0" d="M536,219.7c-0.6,0-1.8-0.5-3.7-1.6c-1.8-1-3.6-2.7-5.2-5c-0.3-0.3-1.1-1.4-2.5-3.1c-1.4-1.7-3.2-3.9-5.4-6.5
		s-4.5-5.4-7.1-8.4c-2.6-3-5.1-6.1-7.7-9.1c-2.6-3-4.9-5.8-7.1-8.4c-2.2-2.6-4.1-4.8-5.5-6.5c-1.5-1.8-2.4-2.8-2.7-3.3
		c-0.5-0.6-0.9-1.1-1.2-1.3c-0.3-0.2-0.7-0.4-0.9-0.4c-0.3,0-0.6,0.3-0.7,0.8c-0.1,0.5-0.2,1-0.2,1.4c-0.1,3.4-0.1,7.3-0.2,11.7
		c-0.1,4.4-0.1,9-0.2,13.7c-0.1,4.7-0.1,9.2-0.1,13.4c0,1.9,0.5,3.6,1.4,5.2c0.9,1.6,2.7,2.6,5.2,3.1c1.2,0.2,2,0.4,2.6,0.7
		c0.6,0.3,0.8,0.7,0.8,1.1c0,0.4-0.3,0.7-0.8,0.9c-0.6,0.2-1.3,0.3-2.2,0.3c-1.9,0-3.3-0.1-4.2-0.2c-0.9-0.1-1.8-0.2-2.5-0.3
		c-0.7-0.1-1.7-0.1-3.1-0.1c-1.2,0-2.2,0-2.9,0.1c-0.7,0.1-1.5,0.2-2.4,0.3c-0.9,0.1-2.3,0.2-4.1,0.2c-0.9,0-1.6-0.1-2.2-0.3
		c-0.6-0.2-0.8-0.5-0.8-0.9c0-0.5,0.3-0.9,0.8-1.1c0.6-0.3,1.4-0.6,2.6-0.8c2-0.6,3.4-1.6,4.3-3.1c0.9-1.5,1.4-3.3,1.7-5.4
		c0.3-2.6,0.6-6.1,0.8-10.4c0.3-4.3,0.5-9.1,0.7-14.5c0.2-5.3,0.3-10.8,0.3-16.5c0-3.7-0.9-6.3-2.8-7.9c-1.9-1.6-4.4-2.9-7.4-3.8
		c-0.3-0.1-0.9-0.4-1.8-0.9c-0.9-0.4-1.4-1-1.4-1.6s0.3-1,0.9-1.2c0.6-0.2,1.1-0.3,1.4-0.3c2,0.1,3.6,0.1,4.9,0.2
		c1.2,0,2.3,0.1,3.3,0.2c1,0.1,2,0.1,3.2,0.2c1.2,0,2.7,0.1,4.6,0.1c0.6,0,1.1,0.2,1.4,0.5c0.3,0.3,0.7,0.8,1,1.2
		c0.3,0.4,1.2,1.6,2.7,3.5c1.6,1.9,3.5,4.3,5.8,7.1c2.3,2.9,4.8,6,7.6,9.3c2.8,3.3,5.5,6.7,8.3,10c2.8,3.3,5.3,6.4,7.7,9.3
		c2.3,2.9,4.3,5.2,5.8,7.1s2.5,3,2.7,3.3c0.3,0.3,0.7,0.7,1.2,1.2c0.5,0.6,1,0.8,1.4,0.8c0.6,0,1-0.7,1-2.2c0-1,0-2.8,0.1-5.5
		c0-2.7,0.1-6,0.1-9.9c0-3.9,0.1-8.1,0.1-12.7c0-4.6,0-9.2,0-14c-0.1-1.4-0.8-2.6-2.2-3.7c-1.4-1.1-2.7-1.8-3.8-2
		c-1.2-0.2-2.2-0.5-3.2-0.8c-1-0.3-1.4-0.8-1.4-1.2c0-0.4,0.5-0.7,1.4-0.9c1-0.2,1.9-0.3,2.8-0.3c0.7,0,1.4,0,2,0c0.7,0,1.3,0,2,0
		c0.7,0,1.3,0,1.9,0c1.7,0,3,0,3.9-0.1c1,0,2-0.1,3.2-0.2c1.1-0.1,2.7-0.1,4.8-0.1c0.9,0,1.6,0.1,2.2,0.3c0.6,0.2,0.8,0.5,0.8,0.9
		c0,1-1.1,1.7-3.4,2.1c-2.6,0.5-4.2,1.1-5.1,1.9c-0.8,0.8-1.3,2-1.4,3.7c0,0.3,0,1.7-0.1,4c0,2.3-0.1,5.3-0.1,8.9
		c0,3.6,0,7.4-0.1,11.6c0,4.1-0.1,8.3-0.1,12.4c0,4.1,0,7.8,0,11c0,1.7,0.1,3.2,0.2,4.5c0.1,1.3,0.2,2.5,0.3,3.4
		c0.1,0.9,0.1,1.6,0.1,2.1c0,1.1-0.2,1.8-0.7,2.1C537.1,219.6,536.6,219.7,536,219.7z"/>
	<path class="st0" d="M566,218.5c-0.9,0-1.6-0.1-2.2-0.3c-0.6-0.2-0.8-0.5-0.8-0.9c0-0.8,1.1-1.4,3.4-1.9c2.6-0.5,4.6-1.3,5.8-2.4
		c1.2-1.1,1.9-2.9,1.9-5.4v-46.6c0-2.5-0.5-4.2-1.5-5.3c-1-1-2.8-1.8-5.4-2.3c-1.2-0.2-2-0.5-2.6-0.8c-0.6-0.3-0.8-0.8-0.8-1.2
		c0-0.4,0.3-0.7,0.8-0.9c0.6-0.2,1.3-0.3,2.2-0.3c2.6,0,4.8,0,6.7,0.1c1.8,0.1,3.6,0.1,5.4,0.2c1.8,0,3.8,0.1,6.3,0.1
		c2.3,0,4.7,0,7.2-0.1c2.5,0,4.8-0.1,7-0.1c2.3-0.1,4.3-0.1,5.9-0.2c1.6,0,2.6-0.1,2.8-0.1c0.3,0,0.7,0.1,1.1,0.2
		c0.4,0.1,0.7,0.4,0.7,0.7c0.3,1.9,0.7,3.8,1,5.7c0.3,1.9,0.5,3.5,0.5,4.9c0,0.6-0.2,1-0.5,1.2c-0.3,0.2-0.6,0.3-1,0.3
		c-0.3,0-0.6-0.1-0.7-0.3c-0.1-0.2-0.3-0.4-0.4-0.8c-0.3-1.2-0.7-2.3-1-3.4c-0.3-1.1-0.8-1.8-1.2-2.3c-1-1.1-2-1.8-3.2-2.2
		c-1.2-0.4-2.4-0.6-3.7-0.6h-13.6c-0.6,0-1.3,0.3-2.3,0.9c-1,0.6-1.4,1.4-1.4,2.4v21.9c0,0.6,0.2,1.2,0.6,1.6
		c0.4,0.4,0.8,0.7,1.3,0.7h10.2c2,0,3.4-0.4,4.1-1.1c0.8-0.7,1.4-2.1,1.9-4c0.4-1.5,1-2.3,1.9-2.3c0.3,0,0.6,0.1,0.9,0.4
		c0.3,0.3,0.5,0.7,0.5,1.2c0,0.3,0,0.9-0.1,1.9c0,1-0.1,2-0.2,3c-0.1,1-0.1,1.8-0.1,2.4c0,0.7,0,1.6,0.1,2.7c0,1.1,0.1,2.2,0.1,3.3
		c0,1,0.1,1.7,0.1,2c0,0.5-0.1,0.9-0.2,1.2c-0.1,0.3-0.4,0.5-0.8,0.5c-1,0-1.8-1.1-2.4-3.3c-0.4-1.6-1-2.8-1.7-3.5
		c-0.7-0.8-1.7-1.1-3.1-1.1h-9.6c-1.2,0-2.1,0.2-2.6,0.5c-0.6,0.3-0.9,1.1-0.9,2.2v19.9c0,2.6,0.6,4.4,1.7,5.4
		c1.1,1,2.8,1.5,5.2,1.5h7.7c2.2,0,4.1-0.1,5.5-0.4c1.5-0.2,2.8-0.7,3.9-1.4c1.1-0.8,2.1-1.8,2.9-3c0.9-1.2,1.8-2.9,2.9-5
		c0.2-0.4,0.4-0.8,0.7-1c0.3-0.3,0.6-0.4,0.9-0.3c0.3,0.1,0.6,0.2,0.8,0.5c0.2,0.2,0.3,0.6,0.3,1c0,0.6-0.2,1.7-0.5,3.3
		c-0.3,1.6-0.8,3.2-1.3,4.8c-0.5,1.7-1,3-1.4,3.9c-0.2,0.5-0.4,0.9-0.6,1.2c-0.2,0.3-0.5,0.5-0.9,0.5c-3.3,0-6.4,0-9.2-0.1
		c-2.8-0.1-5.5-0.1-8.1-0.2c-2.6-0.1-5.1-0.1-7.5-0.2c-2.4-0.1-5-0.1-7.6-0.1c-1.5,0-2.8,0.1-3.9,0.2c-1.1,0.1-2.2,0.2-3.4,0.3
		C569.4,218.4,567.9,218.5,566,218.5z"/>
	<path class="st0" d="M693.8,220.2c-1.9,0-3.8-0.2-5.5-0.5c-1.7-0.3-3.3-0.9-4.8-1.7s-2.8-2-4-3.4c-1.7-2.1-3.2-4.1-4.8-5.9
		c-1.5-1.9-3.1-4.1-4.8-6.6c-1.7-2.5-3.7-5.7-6.2-9.5c-1-1.7-2.5-3.1-4.4-4c-1.5-0.8-3-1.3-4.5-1.6c-1.5-0.3-2.7-0.5-3.7-0.6
		c-0.6-0.1-0.9,0.1-1.2,0.5c-0.2,0.4-0.4,0.9-0.4,1.6v18.2c0,2.2,0.5,4.1,1.6,5.7c1,1.6,2.8,2.7,5.4,3.2c1.2,0.2,2,0.4,2.6,0.7
		c0.6,0.3,0.8,0.7,0.8,1.1c0,0.4-0.3,0.7-0.8,0.9c-0.6,0.2-1.3,0.3-2.2,0.3c-1.9,0-3.3-0.1-4.3-0.2c-1-0.1-1.9-0.3-2.7-0.4
		s-1.8-0.2-3.2-0.2c-1.7,0-3.3,0.1-4.6,0.2s-2.7,0.2-4,0.4c-1.3,0.1-2.9,0.2-4.8,0.2c-0.9,0-1.6-0.1-2.2-0.3
		c-0.6-0.2-0.8-0.5-0.8-0.9c0-0.8,1.1-1.4,3.4-1.9c2.6-0.5,4.5-1.3,5.7-2.4c1.2-1.1,1.8-2.9,1.8-5.5v-44.1c0-2.6-0.1-4.6-0.4-5.9
		c-0.2-1.3-0.8-2.3-1.7-2.8c-0.9-0.6-2.3-0.9-4.3-1.1c-1.2-0.1-2-0.4-2.6-0.8c-0.6-0.4-0.8-0.8-0.8-1.3c0-0.4,0.3-0.7,0.8-0.9
		c0.6-0.2,1.3-0.3,2.2-0.3c1.9,0,3.3,0,4.2,0c0.9,0,1.8,0,2.6,0.1c0.8,0,1.9,0.1,3.3,0.1c1.3,0,2.5-0.1,3.5-0.2
		c1-0.1,2.2-0.2,3.5-0.3c1.3-0.1,2.9-0.1,4.9-0.1c7.6,0,13.4,1.4,17.3,4.2c4,2.8,5.9,7.1,5.9,12.7c0,3.1-0.6,5.8-1.9,8
		c-1.2,2.2-2.8,4.1-4.7,5.6c-1.9,1.5-3.8,2.8-5.7,3.7c-0.3,0.1-0.4,0.2-0.4,0.5c0,0.2,0.2,0.5,0.4,0.9c2.1,3.2,4.2,6.3,6.2,9.2
		c2,2.9,4.1,5.7,6.5,8.5c2.3,2.8,5.1,5.6,8.4,8.6c1.8,1.6,3.6,2.6,5.5,2.9c1.9,0.3,4,0.5,6.4,0.5c1,0,1.6,0.4,1.6,1.1
		c0,1-0.5,1.8-1.6,2.3c-1,0.5-2.2,0.9-3.5,1C695.8,220.1,694.7,220.2,693.8,220.2z M655.1,183.9c3.2,0,5.9-0.7,8.2-2.2
		c2.3-1.4,4.1-3.3,5.4-5.7c1.3-2.3,1.9-4.8,1.9-7.4c0-2.8-0.4-5.4-1.1-7.8c-0.7-2.3-2.2-4.2-4.3-5.6c-2.2-1.4-5.4-2.1-9.8-2.1
		c-2.2,0-3.7,0.7-4.3,2.1c-0.7,1.4-1.1,3.9-1.2,7.5c-0.1,1.7-0.1,4.1-0.2,7c0,2.9-0.1,6.5-0.1,10.6c0,1.7,0.5,2.8,1.4,3.1
		C652,183.8,653.4,183.9,655.1,183.9z"/>
	<path class="st0" d="M294.6,325.4c-2.9,0-5.6-0.4-8-1.3c-2.4-0.9-4.6-2.1-6.6-3.7c-0.3-0.3-0.5-0.6-0.8-0.9
		c-0.2-0.3-0.4-0.7-0.6-1.1c-0.3-1.4-0.6-3.2-0.7-5.4c-0.1-2.2-0.2-4-0.4-5.5c0-0.5,0.2-0.8,0.6-1.1c0.4-0.2,0.9-0.4,1.4-0.4
		c0.3,0,0.7,0.1,1,0.3c0.3,0.2,0.6,0.5,0.6,0.9c1.4,5.3,3.4,9.1,6.2,11.4c2.7,2.3,5.6,3.4,8.5,3.4c2.4,0,4.6-0.5,6.4-1.6
		c1.9-1,3.3-2.5,4.4-4.4c1.1-1.9,1.6-4.1,1.6-6.7c0-2.8-0.5-5.1-1.4-6.9s-2.3-3.3-4-4.6c-1.7-1.3-3.8-2.7-6.3-4.2
		c-2.7-1.7-5.3-3.5-8-5.2c-2.6-1.8-4.8-3.8-6.5-6.1c-1.7-2.3-2.6-5.1-2.6-8.4c0-3.5,0.8-6.7,2.4-9.5c1.6-2.8,4-5.1,7.2-6.8
		c3.2-1.7,7.2-2.5,12.1-2.5c2.5,0,4.6,0.3,6.5,0.8c1.8,0.5,3.3,1,4.4,1.5c0.6,0.2,1,0.6,1.4,1c0.4,0.5,0.6,1,0.8,1.6
		c0.4,1.4,0.9,3.1,1.3,5c0.5,1.9,0.7,3.6,0.7,5.3c0,0.8-0.5,1.1-1.6,1.1c-0.6,0-1.2-0.1-1.8-0.4c-0.6-0.3-0.9-0.6-1.1-1
		c-1.4-3.7-3.1-6.4-5.1-8.4c-1.9-1.9-4.4-2.9-7.3-2.9c-2.1,0-4,0.4-5.8,1.1c-1.8,0.8-3.3,2-4.4,3.7c-1.1,1.7-1.7,4-1.7,6.9
		c0,2.1,0.7,3.9,2,5.6c1.3,1.7,3.1,3.3,5.3,4.8c2.2,1.5,4.6,3.1,7.1,4.7c2.4,1.4,4.8,3,7.1,4.8c2.3,1.7,4.2,3.8,5.7,6.2
		c1.5,2.4,2.2,5.3,2.2,8.7c0,4.1-0.9,7.6-2.8,10.7c-1.9,3.1-4.5,5.4-7.9,7.1C303.1,324.6,299.1,325.4,294.6,325.4z"/>
	<path class="st0" d="M370.9,325.2c-4.6,0-8.9-0.8-13-2.4c-4.1-1.6-7.8-3.9-11-6.9c-3.2-3-5.7-6.6-7.6-10.8
		c-1.9-4.2-2.8-8.8-2.8-13.9c0-4.7,0.8-9.2,2.3-13.5c1.5-4.3,3.8-8.2,6.7-11.5c3-3.4,6.7-6.1,11.1-8.1c4.4-2,9.5-3,15.2-3
		c4.6,0,8.9,0.8,13,2.4c4.1,1.6,7.8,3.9,11,6.9c3.2,3,5.7,6.6,7.6,10.8c1.9,4.2,2.8,8.8,2.8,13.9c0,4.6-0.8,9.1-2.3,13.4
		c-1.5,4.3-3.8,8.2-6.7,11.6c-3,3.4-6.7,6.1-11.1,8.1C381.7,324.2,376.6,325.2,370.9,325.2z M372.5,321c5.3,0,9.7-1.1,13.2-3.4
		c3.5-2.2,6.2-5.4,7.9-9.4s2.6-8.7,2.6-14.1c0-4.8-0.6-9.2-1.7-13.4c-1.1-4.2-2.7-7.9-4.9-11.1c-2.2-3.2-4.9-5.7-8.1-7.5
		c-3.2-1.8-7-2.7-11.4-2.7c-5.2,0-9.5,1.1-13,3.3c-3.5,2.2-6.2,5.3-8,9.3c-1.8,4-2.7,8.6-2.7,14c0,4.8,0.5,9.3,1.6,13.6
		c1.1,4.2,2.7,7.9,4.9,11.2c2.2,3.2,4.9,5.8,8.1,7.6C364.3,320.1,368.1,321,372.5,321z"/>
	<path class="st0" d="M427.3,324.2c-0.9,0-1.6-0.1-2.2-0.3c-0.6-0.2-0.8-0.5-0.8-0.9c0-0.8,1.1-1.4,3.4-1.9c2.6-0.5,4.4-1.3,5.4-2.4
		c1-1.1,1.5-2.9,1.5-5.5v-43.7c0-3.1-0.4-5.5-1.2-7.1c-0.8-1.7-2.5-2.7-5.1-3.2c-1.2-0.2-2-0.5-2.6-0.8c-0.6-0.3-0.8-0.8-0.8-1.2
		c0-0.4,0.3-0.7,0.8-0.9c0.6-0.2,1.3-0.3,2.2-0.3c2.6,0,4.7,0,6.5,0.1c1.8,0.1,3.5,0.1,5.2,0.2c1.7,0,3.8,0.1,6.1,0.1
		c2,0,4.1,0,6.4,0c2.3,0,4.5,0,6.6,0c2.2,0,4.2-0.2,5.8-0.5c1.7-0.3,3.2-0.5,4.4-0.5c0.3,0,0.7,0.1,1.1,0.2c0.4,0.1,0.7,0.4,0.7,0.7
		c0.1,0.8,0.2,1.9,0.3,3.4c0.1,1.5,0.1,2.9,0.2,4.3c0,1.4,0.1,2.3,0.1,2.8c0,1.4-0.3,2.2-0.9,2.2c-0.3,0-0.7-0.1-0.9-0.4
		c-0.3-0.2-0.5-0.5-0.6-0.9c-0.3-1.2-0.6-2.2-1-3.1c-0.4-0.9-0.9-1.5-1.3-2c-1-1.1-2-1.8-3.2-2.2c-1.2-0.4-2.4-0.6-3.7-0.6h-13.1
		c-1.6,0-2.6,0.5-2.9,1.6c-0.3,1-0.6,2.2-0.6,3.6c-0.1,1.3-0.1,2.9-0.1,4.8c0,1.9,0,3.7,0,5.5c0,1.7,0,3.5,0,5.3
		c0,1.8,0,3.3,0.1,4.6c0,0.6,0.1,1.1,0.2,1.6c0.1,0.5,0.4,0.7,0.9,0.7c2.2,0,4.4-0.1,6.7-0.2c2.3-0.1,4-0.2,5.3-0.2
		c1.5,0,2.8-0.4,3.9-1.2c1.1-0.8,1.9-1.8,2.4-3c0.1-0.3,0.4-0.6,0.8-1.1c0.4-0.4,0.8-0.7,1-0.7c0.3,0,0.6,0.2,0.9,0.5
		c0.3,0.3,0.5,0.7,0.4,1.2c-0.1,1.2-0.1,2.2-0.2,3.1c-0.1,0.9-0.1,1.8-0.1,2.6c0,1,0,2.1,0.1,3.2c0.1,1.1,0.1,2.4,0.2,3.9
		c0,0.5-0.1,0.9-0.2,1.2c-0.1,0.3-0.4,0.5-0.8,0.5c-0.7,0-1.2-0.3-1.6-0.9c-0.4-0.6-0.6-1.1-0.8-1.4c-0.5-1.6-1.2-2.7-2.2-3.3
		c-1-0.6-1.9-0.9-2.7-0.9c-0.9,0-1.8,0-2.6-0.1c-0.9,0-1.7-0.1-2.5-0.1c-1.2,0-2.3,0-3.4,0c-1.1,0-2.2,0.1-3.3,0.2
		c-0.7,0.1-1.3,0.3-1.8,0.7c-0.5,0.4-0.7,1-0.7,1.9c0,3.2,0,6.4,0.1,9.7c0,3.3,0.1,6.6,0.3,10.1c0.1,2.2,0.7,4,1.6,5.3
		c0.9,1.3,2.7,2.2,5.2,2.7c1.2,0.2,2,0.5,2.6,0.7c0.6,0.3,0.8,0.7,0.8,1.1c0,0.4-0.3,0.7-0.8,0.9c-0.6,0.2-1.3,0.3-2.2,0.3
		c-1.9,0-3.3-0.1-4.3-0.2c-1-0.1-1.9-0.3-2.7-0.4c-0.8-0.1-1.8-0.2-3.2-0.2c-1.7,0-3.1,0.1-4.4,0.2c-1.3,0.1-2.6,0.2-3.9,0.4
		C430.7,324.2,429.1,324.2,427.3,324.2z"/>
	<path class="st0" d="M479.5,324.2c-0.9,0-1.6-0.1-2.2-0.4c-0.6-0.2-0.8-0.6-0.8-1c0-0.5,0.3-0.9,0.9-1.3c0.6-0.4,1.4-0.7,2.5-1.1
		c1.8-0.6,3.4-1.4,5-2.5c1.5-1.1,2.8-2.9,3.9-5.5c1.9-4.4,3.7-8.6,5.3-12.4c1.6-3.9,3.2-7.7,4.6-11.4c1.4-3.7,2.9-7.6,4.5-11.6
		c1.6-4,3.2-8.4,4.9-13.2c0.3-1,0.7-1.9,0.9-2.9c0.3-1,0.4-2,0.5-3.1c0.6-0.2,1.2-0.4,1.9-0.6c0.6-0.2,1.2-0.5,1.9-0.9
		c0.6-0.4,1.1-1,1.3-1.9c0.2-0.8,0.5-1.4,0.7-1.7c0.1-0.1,0.2-0.1,0.3-0.1s0.2,0.1,0.3,0.2c0.1,0.3,0.3,0.6,0.4,1
		c0.1,0.4,0.2,0.8,0.4,1.2c1.7,5.2,3.4,10.6,5.2,16c1.8,5.4,3.5,10.7,5.2,15.8c1.7,5.1,3.2,9.6,4.7,13.7c1.4,4,2.5,7.3,3.4,9.8
		c1,2.8,2,4.8,3.1,6.2c1.1,1.4,2.3,2.3,3.5,2.9c1.2,0.6,2.5,1,3.9,1.2c1.2,0.2,2,0.5,2.6,1c0.6,0.4,0.8,0.9,0.8,1.4
		c0,0.4-0.3,0.7-0.8,0.8c-0.6,0.1-1.3,0.2-2.2,0.2c-1,0-2.3-0.1-3.9-0.2s-3.4-0.2-5.3-0.3s-3.6-0.2-5.2-0.2c-1.3,0-2.7,0-4,0
		c-1.4,0-2.7,0-3.8,0.1c-1.2,0-2.2,0.1-3,0.1c-0.9,0-1.6-0.1-2.2-0.3c-0.6-0.2-0.8-0.5-0.8-0.9c0-0.5,0.3-0.9,1-1.2
		c0.7-0.3,1.5-0.6,2.4-0.7c2.3-0.3,3.9-0.9,4.9-1.8c1-0.8,1.4-1.8,1.4-2.9c0-1-0.2-2.5-0.7-4.5c-0.5-2-1-4.1-1.6-6.3
		c-0.6-2.2-1.2-4.2-1.8-5.9c-0.1-0.6-0.4-0.9-0.8-1c-0.4-0.1-1.1-0.2-2-0.2h-19.6c-0.3,0-0.6,0.1-0.9,0.4c-0.3,0.2-0.6,0.7-0.9,1.5
		c-0.2,0.7-0.6,1.8-1,3.3c-0.5,1.5-1,3.1-1.4,4.7c-0.5,1.7-0.9,3.1-1.2,4.4c-0.3,1.3-0.5,2.1-0.5,2.5c0,1.5,0.6,2.8,1.8,3.8
		c1.2,1,2.6,1.7,4.2,2.1c2.3,0.6,3.4,1.3,3.4,2.1c0,0.4-0.3,0.7-0.8,0.9c-0.6,0.2-1.3,0.3-2.2,0.3c-0.9,0-2.2,0-3.9-0.1
		c-1.7-0.1-3.6-0.1-5.5-0.1c-2.3,0-4.5,0.1-6.6,0.3C483.2,324.1,481.3,324.2,479.5,324.2z M503.7,294.6h16c1,0,1.4-0.2,1.4-0.5
		c0-0.1,0-0.3-0.1-0.5c0-0.2-0.1-0.4-0.2-0.6l-8.1-25.2c-0.4-1.2-0.7-1.9-0.9-1.9c-0.1,0-0.4,0.6-0.8,1.8l-9.4,25.3
		c-0.1,0.4-0.2,0.7-0.2,0.8c0,0.3,0.2,0.6,0.6,0.6C502.5,294.5,503.1,294.6,503.7,294.6z"/>
	<path class="st0" d="M97.2,430c-0.9,0-1.6-0.1-2.2-0.3c-0.6-0.2-0.8-0.5-0.8-0.9c0-0.8,1.1-1.4,3.4-1.9c2.6-0.5,4.6-1.3,6-2.4
		c1.4-1.1,2.1-2.9,2.1-5.3v-46.8c0-2.4-0.5-4.1-1.5-5.2c-1-1-2.8-1.8-5.4-2.3c-2.3-0.4-3.4-1.1-3.4-2.1c0-0.4,0.3-0.7,0.8-0.9
		c0.6-0.2,1.3-0.3,2.2-0.3c1.9,0,3.4,0,4.6,0.1c1.2,0.1,2.4,0.1,3.5,0.2c1.1,0,2.4,0.1,4,0.1c1.5,0,2.8,0,3.7-0.1c1,0,2-0.1,3.1-0.2
		c1.1-0.1,2.6-0.1,4.4-0.1c0.9,0,1.6,0.1,2.2,0.3c0.6,0.2,0.8,0.5,0.8,0.9c0,0.5-0.3,0.9-0.8,1.2c-0.6,0.3-1.4,0.6-2.6,0.8
		c-2.6,0.5-4.4,1.2-5.6,2.3c-1.2,1-1.8,2.8-1.8,5.2v46.8c0,2.4,0.7,4.2,2.2,5.3c1.4,1.1,3.4,1.9,6,2.4c1.2,0.2,2,0.5,2.6,0.7
		c0.6,0.3,0.8,0.7,0.8,1.1c0,0.4-0.3,0.7-0.8,0.9c-0.6,0.2-1.3,0.3-2.2,0.3c-1.9,0-3.4-0.1-4.6-0.2c-1.2-0.1-2.4-0.2-3.5-0.3
		c-1.1-0.1-2.4-0.1-4-0.1c-1.7,0-3.2,0-4.5,0.1c-1.3,0.1-2.6,0.2-3.9,0.3C100.7,429.9,99.1,430,97.2,430z"/>
	<path class="st0" d="M206.9,431.2c-0.6,0-1.8-0.5-3.7-1.6c-1.8-1-3.6-2.7-5.2-5c-0.3-0.3-1.1-1.4-2.5-3.1c-1.4-1.7-3.2-3.9-5.4-6.5
		c-2.2-2.6-4.5-5.4-7.1-8.4c-2.6-3-5.1-6.1-7.7-9.1c-2.6-3-4.9-5.8-7.1-8.4c-2.2-2.6-4.1-4.8-5.5-6.5c-1.5-1.8-2.4-2.8-2.7-3.3
		c-0.5-0.6-0.9-1.1-1.2-1.3c-0.3-0.2-0.7-0.4-0.9-0.4c-0.3,0-0.6,0.3-0.7,0.8c-0.1,0.5-0.2,1-0.2,1.4c-0.1,3.4-0.1,7.3-0.2,11.7
		c-0.1,4.4-0.1,9-0.2,13.7c-0.1,4.7-0.1,9.2-0.1,13.4c0,1.9,0.5,3.6,1.4,5.2c0.9,1.6,2.7,2.6,5.2,3.1c1.2,0.2,2,0.5,2.6,0.7
		c0.6,0.3,0.8,0.7,0.8,1.1c0,0.4-0.3,0.7-0.8,0.9c-0.6,0.2-1.3,0.3-2.2,0.3c-1.9,0-3.3-0.1-4.2-0.2s-1.8-0.2-2.5-0.3
		c-0.7-0.1-1.7-0.1-3.1-0.1c-1.2,0-2.2,0-2.9,0.1c-0.7,0.1-1.5,0.2-2.4,0.3c-0.9,0.1-2.3,0.2-4.1,0.2c-0.9,0-1.6-0.1-2.2-0.3
		c-0.6-0.2-0.8-0.5-0.8-0.9c0-0.5,0.3-0.9,0.8-1.1c0.6-0.3,1.4-0.6,2.6-0.8c2-0.6,3.4-1.6,4.3-3.1c0.9-1.5,1.4-3.3,1.7-5.4
		c0.3-2.6,0.6-6.1,0.8-10.4c0.3-4.3,0.5-9.1,0.7-14.5c0.2-5.3,0.3-10.8,0.3-16.5c0-3.7-0.9-6.3-2.8-7.9c-1.9-1.6-4.4-2.9-7.4-3.8
		c-0.3-0.1-0.9-0.4-1.8-0.9c-0.9-0.4-1.4-1-1.4-1.6s0.3-1,0.9-1.2c0.6-0.2,1.1-0.3,1.4-0.3c2,0.1,3.6,0.1,4.9,0.2
		c1.2,0,2.3,0.1,3.3,0.2c1,0.1,2,0.1,3.2,0.2c1.2,0,2.7,0.1,4.6,0.1c0.6,0,1.1,0.2,1.4,0.5c0.3,0.3,0.7,0.8,1,1.2
		c0.3,0.4,1.2,1.6,2.7,3.5c1.6,1.9,3.5,4.3,5.8,7.1c2.3,2.9,4.8,6,7.6,9.3c2.8,3.3,5.5,6.7,8.3,10c2.8,3.3,5.3,6.5,7.7,9.3
		c2.3,2.9,4.3,5.2,5.8,7.1c1.6,1.9,2.5,3,2.7,3.3c0.3,0.3,0.7,0.7,1.2,1.2c0.5,0.6,1,0.8,1.4,0.8c0.6,0,1-0.7,1-2.2
		c0-1,0-2.8,0.1-5.5c0-2.7,0.1-6,0.1-9.9c0-3.9,0.1-8.1,0.1-12.7c0-4.6,0-9.2,0-14c-0.1-1.4-0.8-2.6-2.2-3.7c-1.4-1.1-2.7-1.8-3.8-2
		c-1.2-0.2-2.2-0.5-3.2-0.8c-1-0.3-1.4-0.8-1.4-1.2c0-0.4,0.5-0.7,1.4-0.9c1-0.2,1.9-0.3,2.8-0.3c0.7,0,1.4,0,2,0c0.7,0,1.3,0,2,0
		c0.7,0,1.3,0,1.9,0c1.7,0,3,0,3.9-0.1c1,0,2-0.1,3.2-0.2c1.1-0.1,2.7-0.1,4.8-0.1c0.9,0,1.6,0.1,2.2,0.3c0.6,0.2,0.8,0.5,0.8,0.9
		c0,1-1.1,1.7-3.4,2.1c-2.6,0.5-4.2,1.1-5.1,1.9c-0.8,0.8-1.3,2-1.4,3.7c0,0.3,0,1.7-0.1,4c0,2.3-0.1,5.3-0.1,8.9
		c0,3.6,0,7.4-0.1,11.6c0,4.1-0.1,8.3-0.1,12.4c0,4.1,0,7.8,0,11c0,1.7,0.1,3.2,0.2,4.5c0.1,1.3,0.2,2.5,0.3,3.4
		c0.1,0.9,0.1,1.6,0.1,2.1c0,1.1-0.2,1.8-0.7,2.1C207.9,431.1,207.4,431.2,206.9,431.2z"/>
	<path class="st0" d="M252.2,430c-0.9,0-1.6-0.1-2.2-0.3c-0.6-0.2-0.8-0.5-0.8-0.9c0-0.5,0.3-0.9,0.8-1.1c0.6-0.3,1.4-0.5,2.6-0.7
		c2.6-0.5,4.6-1.3,6-2.5c1.4-1.2,2.1-3.1,2.1-5.5v-40.1c0-3.2-0.1-5.6-0.2-7.3c-0.1-1.7-0.4-2.9-0.7-3.6c-0.3-0.7-0.7-1.1-1.3-1.1
		c-1-0.2-2-0.3-3.1-0.4c-1.1,0-2.5-0.1-4.3-0.1h-4.9c-1.7,0-3.3,0.3-4.9,1c-1.6,0.7-2.8,1.7-3.6,3.1c-0.2,0.3-0.6,0.8-1,1.5
		c-0.5,0.7-1,1.2-1.6,1.7c-0.6,0.5-1.1,0.7-1.7,0.7c-0.3,0-0.5-0.1-0.6-0.4c-0.1-0.3-0.2-0.6-0.2-0.9c0-0.7,0.2-1.4,0.5-2.1
		c1-2,1.7-3.8,2.1-5.3c0.4-1.6,0.8-3.4,1.1-5.5c0.1-1.2,0.4-1.9,0.8-2.1c0.4-0.2,0.7-0.3,1-0.3c0.3,0,0.7,0.4,1.3,1.2
		c0.6,0.8,1,1.5,1.3,2.1c0.4,0.7,1.4,1.2,2.8,1.6c1.5,0.3,2.9,0.5,4.4,0.5h36.4c2.4,0,4.4-0.1,5.9-0.4c1.5-0.3,2.8-0.7,3.9-1.1
		c0.8-0.4,1.5-0.9,2-1.3c0.5-0.5,1.2-0.7,2-0.7c0.2,0,0.4,0.3,0.5,0.8c0.1,0.5,0.2,1.1,0.2,1.6c0,0.3-0.1,0.8-0.2,1.4
		c-0.1,0.6-0.2,1.1-0.3,1.4c-0.2,1.2-0.4,2.1-0.6,2.7c-0.2,0.6-0.3,1-0.4,1.4c-0.1,0.4-0.1,1.1-0.1,2v1.2c0,0.6-0.1,1.3-0.4,2.1
		c-0.3,0.8-0.7,1.2-1.2,1.2c-0.5,0-0.9-0.4-1.1-1.1c-0.3-0.8-0.6-1.8-0.8-3.1c-0.3-1.4-1.1-2.6-2.5-3.5c-1.4-0.9-3.7-1.3-7-1.3
		h-10.4c-1.5,0-2.7,0.2-3.4,0.6c-0.8,0.4-1.2,1.4-1.4,3.1c-0.2,1.7-0.3,4.4-0.3,8.2v40.7c0,2.5,0.7,4.3,2.2,5.5
		c1.4,1.2,3.4,2.1,6,2.5c1.2,0.2,2,0.5,2.6,0.7c0.6,0.3,0.8,0.7,0.8,1.1c0,0.4-0.3,0.7-0.8,0.9c-0.6,0.2-1.3,0.3-2.2,0.3
		c-1.9,0-3.4-0.1-4.6-0.2c-1.2-0.1-2.4-0.2-3.5-0.3c-1.1-0.1-2.4-0.1-4-0.1c-1.7,0-3.2,0-4.5,0.1c-1.3,0.1-2.6,0.2-3.9,0.3
		C255.7,429.9,254,430,252.2,430z"/>
	<path class="st0" d="M316.5,430c-0.9,0-1.6-0.1-2.2-0.3c-0.6-0.2-0.8-0.5-0.8-0.9c0-0.8,1.1-1.4,3.4-1.9c2.6-0.5,4.6-1.3,5.8-2.4
		c1.2-1.1,1.9-2.9,1.9-5.4v-46.6c0-2.5-0.5-4.2-1.5-5.3c-1-1-2.8-1.8-5.4-2.3c-1.2-0.2-2-0.5-2.6-0.8c-0.6-0.3-0.8-0.8-0.8-1.2
		c0-0.4,0.3-0.7,0.8-0.9c0.6-0.2,1.3-0.3,2.2-0.3c2.6,0,4.8,0,6.7,0.1c1.8,0.1,3.6,0.1,5.4,0.2c1.8,0,3.8,0.1,6.3,0.1
		c2.3,0,4.7,0,7.2-0.1c2.5,0,4.8-0.1,7-0.1c2.3-0.1,4.3-0.1,5.9-0.2c1.6,0,2.6-0.1,2.8-0.1c0.3,0,0.7,0.1,1.1,0.2
		c0.4,0.1,0.7,0.4,0.7,0.7c0.3,1.9,0.7,3.8,1,5.7c0.3,1.9,0.5,3.5,0.5,4.9c0,0.6-0.2,1-0.5,1.2s-0.6,0.3-1,0.3
		c-0.3,0-0.6-0.1-0.7-0.3c-0.1-0.2-0.3-0.4-0.4-0.8c-0.3-1.2-0.7-2.3-1-3.4c-0.3-1.1-0.8-1.8-1.2-2.3c-1-1.1-2-1.8-3.2-2.2
		c-1.2-0.4-2.4-0.6-3.7-0.6h-13.6c-0.6,0-1.3,0.3-2.3,0.9c-1,0.6-1.4,1.4-1.4,2.4v21.9c0,0.6,0.2,1.2,0.6,1.6
		c0.4,0.4,0.8,0.7,1.3,0.7H345c2,0,3.4-0.4,4.1-1.1c0.8-0.7,1.4-2.1,1.9-4c0.4-1.5,1-2.3,1.9-2.3c0.3,0,0.6,0.1,0.9,0.4
		c0.3,0.3,0.5,0.7,0.5,1.2c0,0.3,0,0.9-0.1,1.9c0,1-0.1,2-0.2,3c-0.1,1-0.1,1.8-0.1,2.4c0,0.7,0,1.6,0.1,2.7c0,1.1,0.1,2.2,0.1,3.3
		c0,1,0.1,1.7,0.1,2c0,0.5-0.1,0.9-0.2,1.2c-0.1,0.3-0.4,0.5-0.8,0.5c-1,0-1.8-1.1-2.4-3.3c-0.4-1.6-1-2.8-1.7-3.5
		c-0.7-0.8-1.7-1.1-3.1-1.1h-9.6c-1.2,0-2.1,0.2-2.6,0.5c-0.6,0.3-0.9,1.1-0.9,2.2v19.9c0,2.6,0.6,4.4,1.7,5.4
		c1.1,1,2.8,1.5,5.2,1.5h7.7c2.2,0,4.1-0.1,5.5-0.4c1.5-0.2,2.8-0.7,3.9-1.4c1.1-0.8,2.1-1.8,2.9-3c0.9-1.2,1.8-2.9,2.9-5
		c0.2-0.4,0.4-0.8,0.7-1c0.3-0.3,0.6-0.4,0.9-0.3c0.3,0.1,0.6,0.2,0.8,0.5c0.2,0.2,0.3,0.6,0.3,1c0,0.6-0.2,1.7-0.5,3.3
		c-0.3,1.6-0.8,3.2-1.3,4.8c-0.5,1.7-1,3-1.4,3.9c-0.2,0.5-0.4,0.9-0.6,1.2c-0.2,0.3-0.5,0.5-0.9,0.5c-3.3,0-6.4,0-9.2-0.1
		c-2.8-0.1-5.5-0.1-8.1-0.2c-2.6-0.1-5.1-0.1-7.5-0.2c-2.4-0.1-5-0.1-7.6-0.1c-1.5,0-2.8,0.1-3.9,0.2c-1.1,0.1-2.2,0.2-3.4,0.3
		C319.9,429.9,318.4,430,316.5,430z"/>
	<path class="st0" d="M444.3,431.7c-1.9,0-3.8-0.2-5.5-0.5c-1.7-0.3-3.3-0.9-4.8-1.7s-2.8-2-4-3.4c-1.7-2.1-3.2-4.1-4.8-5.9
		c-1.5-1.9-3.1-4.1-4.8-6.6c-1.7-2.5-3.7-5.7-6.2-9.5c-1-1.7-2.5-3.1-4.4-4c-1.5-0.8-3-1.3-4.5-1.6c-1.5-0.3-2.7-0.5-3.7-0.6
		c-0.6-0.1-0.9,0.1-1.2,0.5c-0.2,0.4-0.4,0.9-0.4,1.6v18.2c0,2.2,0.5,4.1,1.6,5.7c1,1.6,2.8,2.7,5.4,3.2c1.2,0.2,2,0.5,2.6,0.7
		c0.6,0.3,0.8,0.7,0.8,1.1c0,0.4-0.3,0.7-0.8,0.9c-0.6,0.2-1.3,0.3-2.2,0.3c-1.9,0-3.3-0.1-4.3-0.2c-1-0.1-1.9-0.3-2.7-0.4
		c-0.8-0.1-1.8-0.2-3.2-0.2c-1.7,0-3.3,0.1-4.6,0.2c-1.3,0.1-2.7,0.2-4,0.4c-1.3,0.1-2.9,0.2-4.8,0.2c-0.9,0-1.6-0.1-2.2-0.3
		c-0.6-0.2-0.8-0.5-0.8-0.9c0-0.8,1.1-1.4,3.4-1.9c2.6-0.5,4.5-1.3,5.7-2.4c1.2-1.1,1.8-2.9,1.8-5.5v-44.1c0-2.6-0.1-4.6-0.4-5.9
		c-0.2-1.3-0.8-2.3-1.7-2.8c-0.9-0.6-2.3-0.9-4.3-1.1c-1.2-0.1-2-0.4-2.6-0.8c-0.6-0.4-0.8-0.8-0.8-1.3c0-0.4,0.3-0.7,0.8-0.9
		c0.6-0.2,1.3-0.3,2.2-0.3c1.9,0,3.3,0,4.2,0c0.9,0,1.8,0,2.6,0.1c0.8,0,1.9,0.1,3.3,0.1c1.3,0,2.5-0.1,3.5-0.2
		c1-0.1,2.2-0.2,3.5-0.3c1.3-0.1,2.9-0.1,4.9-0.1c7.6,0,13.4,1.4,17.3,4.2c4,2.8,5.9,7.1,5.9,12.7c0,3.1-0.6,5.8-1.9,8
		c-1.2,2.2-2.8,4.1-4.7,5.6c-1.9,1.5-3.8,2.8-5.7,3.7c-0.3,0.1-0.4,0.2-0.4,0.5c0,0.2,0.2,0.5,0.4,0.9c2.1,3.2,4.2,6.3,6.2,9.2
		c2,2.9,4.1,5.7,6.5,8.5c2.3,2.8,5.1,5.6,8.4,8.6c1.8,1.6,3.6,2.6,5.5,2.9c1.9,0.3,4,0.5,6.4,0.5c1,0,1.6,0.4,1.6,1.1
		c0,1-0.5,1.8-1.6,2.3c-1,0.5-2.2,0.9-3.5,1C446.3,431.6,445.2,431.7,444.3,431.7z M405.6,395.4c3.2,0,5.9-0.7,8.2-2.2
		c2.3-1.4,4.1-3.3,5.4-5.7c1.3-2.3,1.9-4.8,1.9-7.4c0-2.8-0.4-5.4-1.1-7.8c-0.7-2.3-2.2-4.2-4.3-5.6c-2.2-1.4-5.4-2.1-9.8-2.1
		c-2.2,0-3.7,0.7-4.3,2.1c-0.7,1.4-1.1,3.9-1.2,7.5c-0.1,1.7-0.1,4.1-0.2,7c0,2.9-0.1,6.5-0.1,10.6c0,1.7,0.5,2.8,1.4,3.1
		C402.5,395.3,403.9,395.4,405.6,395.4z"/>
	<path class="st0" d="M467.5,430c-0.9,0-1.6-0.1-2.2-0.3c-0.6-0.2-0.8-0.5-0.8-0.9c0-0.8,1.1-1.4,3.4-1.9c2.6-0.5,4.6-1.3,6-2.4
		c1.4-1.1,2.1-2.9,2.1-5.3v-46.8c0-2.4-0.5-4.1-1.5-5.2c-1-1-2.8-1.8-5.4-2.3c-2.3-0.4-3.4-1.1-3.4-2.1c0-0.4,0.3-0.7,0.8-0.9
		c0.6-0.2,1.3-0.3,2.2-0.3c1.9,0,3.4,0,4.6,0.1c1.2,0.1,2.4,0.1,3.5,0.2c1.1,0,2.4,0.1,4,0.1c1.5,0,2.8,0,3.7-0.1c1,0,2-0.1,3.1-0.2
		c1.1-0.1,2.6-0.1,4.4-0.1c0.9,0,1.6,0.1,2.2,0.3c0.6,0.2,0.8,0.5,0.8,0.9c0,0.5-0.3,0.9-0.8,1.2c-0.6,0.3-1.4,0.6-2.6,0.8
		c-2.6,0.5-4.4,1.2-5.6,2.3c-1.2,1-1.8,2.8-1.8,5.2v46.8c0,2.4,0.7,4.2,2.2,5.3c1.4,1.1,3.4,1.9,6,2.4c1.2,0.2,2,0.5,2.6,0.7
		c0.6,0.3,0.8,0.7,0.8,1.1c0,0.4-0.3,0.7-0.8,0.9c-0.6,0.2-1.3,0.3-2.2,0.3c-1.9,0-3.4-0.1-4.6-0.2c-1.2-0.1-2.4-0.2-3.5-0.3
		c-1.1-0.1-2.4-0.1-4-0.1c-1.7,0-3.2,0-4.5,0.1c-1.3,0.1-2.6,0.2-3.9,0.3C470.9,429.9,469.3,430,467.5,430z"/>
	<path class="st0" d="M547,430.9c-4.6,0-8.9-0.8-13-2.4c-4.1-1.6-7.8-3.9-11-6.9c-3.2-3-5.7-6.6-7.6-10.8c-1.9-4.2-2.8-8.8-2.8-13.9
		c0-4.7,0.8-9.2,2.3-13.5c1.5-4.3,3.8-8.2,6.7-11.5c3-3.4,6.7-6.1,11.1-8.1c4.4-2,9.5-3,15.2-3c4.6,0,8.9,0.8,13,2.4
		c4.1,1.6,7.8,3.9,11,6.9c3.2,3,5.7,6.6,7.6,10.8c1.9,4.2,2.8,8.8,2.8,13.9c0,4.6-0.8,9.1-2.3,13.4c-1.5,4.3-3.8,8.2-6.7,11.6
		c-3,3.4-6.7,6.1-11.1,8.1C557.8,429.9,552.8,430.9,547,430.9z M548.6,426.8c5.3,0,9.7-1.1,13.2-3.4c3.5-2.2,6.2-5.4,7.9-9.4
		s2.6-8.7,2.6-14.1c0-4.8-0.6-9.2-1.7-13.4c-1.1-4.2-2.7-7.9-4.9-11.1s-4.9-5.7-8.1-7.5c-3.2-1.8-7-2.7-11.4-2.7
		c-5.2,0-9.5,1.1-13,3.3c-3.5,2.2-6.2,5.3-8,9.3c-1.8,4-2.7,8.6-2.7,14c0,4.8,0.5,9.3,1.6,13.6c1.1,4.2,2.7,7.9,4.9,11.2
		c2.2,3.2,4.9,5.8,8.1,7.6C540.5,425.9,544.2,426.8,548.6,426.8z"/>
	<path class="st0" d="M663.2,431.7c-1.9,0-3.8-0.2-5.5-0.5c-1.7-0.3-3.3-0.9-4.8-1.7s-2.8-2-4-3.4c-1.7-2.1-3.2-4.1-4.8-5.9
		c-1.5-1.9-3.1-4.1-4.8-6.6c-1.7-2.5-3.7-5.7-6.2-9.5c-1-1.7-2.5-3.1-4.4-4c-1.5-0.8-3-1.3-4.5-1.6c-1.5-0.3-2.7-0.5-3.7-0.6
		c-0.6-0.1-0.9,0.1-1.2,0.5c-0.2,0.4-0.4,0.9-0.4,1.6v18.2c0,2.2,0.5,4.1,1.6,5.7c1,1.6,2.8,2.7,5.4,3.2c1.2,0.2,2,0.5,2.6,0.7
		c0.6,0.3,0.8,0.7,0.8,1.1c0,0.4-0.3,0.7-0.8,0.9c-0.6,0.2-1.3,0.3-2.2,0.3c-1.9,0-3.3-0.1-4.3-0.2c-1-0.1-1.9-0.3-2.7-0.4
		s-1.8-0.2-3.2-0.2c-1.7,0-3.3,0.1-4.6,0.2s-2.7,0.2-4,0.4c-1.3,0.1-2.9,0.2-4.8,0.2c-0.9,0-1.6-0.1-2.2-0.3
		c-0.6-0.2-0.8-0.5-0.8-0.9c0-0.8,1.1-1.4,3.4-1.9c2.6-0.5,4.5-1.3,5.7-2.4c1.2-1.1,1.8-2.9,1.8-5.5v-44.1c0-2.6-0.1-4.6-0.4-5.9
		c-0.2-1.3-0.8-2.3-1.7-2.8c-0.9-0.6-2.3-0.9-4.3-1.1c-1.2-0.1-2-0.4-2.6-0.8c-0.6-0.4-0.8-0.8-0.8-1.3c0-0.4,0.3-0.7,0.8-0.9
		c0.6-0.2,1.3-0.3,2.2-0.3c1.9,0,3.3,0,4.2,0c0.9,0,1.8,0,2.6,0.1c0.8,0,1.9,0.1,3.3,0.1c1.3,0,2.5-0.1,3.5-0.2
		c1-0.1,2.2-0.2,3.5-0.3c1.3-0.1,2.9-0.1,4.9-0.1c7.6,0,13.4,1.4,17.3,4.2c4,2.8,5.9,7.1,5.9,12.7c0,3.1-0.6,5.8-1.9,8
		c-1.2,2.2-2.8,4.1-4.7,5.6c-1.9,1.5-3.8,2.8-5.7,3.7c-0.3,0.1-0.4,0.2-0.4,0.5c0,0.2,0.2,0.5,0.4,0.9c2.1,3.2,4.2,6.3,6.2,9.2
		c2,2.9,4.1,5.7,6.5,8.5c2.3,2.8,5.1,5.6,8.4,8.6c1.8,1.6,3.6,2.6,5.5,2.9c1.9,0.3,4,0.5,6.4,0.5c1,0,1.6,0.4,1.6,1.1
		c0,1-0.5,1.8-1.6,2.3c-1,0.5-2.2,0.9-3.5,1C665.2,431.6,664.1,431.7,663.2,431.7z M624.5,395.4c3.2,0,5.9-0.7,8.2-2.2
		c2.3-1.4,4.1-3.3,5.4-5.7c1.3-2.3,1.9-4.8,1.9-7.4c0-2.8-0.4-5.4-1.1-7.8c-0.7-2.3-2.2-4.2-4.3-5.6c-2.2-1.4-5.4-2.1-9.8-2.1
		c-2.2,0-3.7,0.7-4.3,2.1c-0.7,1.4-1.1,3.9-1.2,7.5c-0.1,1.7-0.1,4.1-0.2,7c0,2.9-0.1,6.5-0.1,10.6c0,1.7,0.5,2.8,1.4,3.1
		C621.5,395.3,622.8,395.4,624.5,395.4z"/>
	<path class="st0" d="M702.5,431.1c-2.9,0-5.6-0.4-8-1.3c-2.4-0.9-4.6-2.1-6.6-3.7c-0.3-0.3-0.5-0.6-0.8-0.9
		c-0.2-0.3-0.4-0.7-0.6-1.1c-0.3-1.4-0.6-3.2-0.7-5.4c-0.1-2.2-0.2-4-0.4-5.5c0-0.5,0.2-0.8,0.6-1.1c0.4-0.2,0.9-0.4,1.4-0.4
		c0.3,0,0.7,0.1,1,0.3c0.3,0.2,0.6,0.5,0.6,0.9c1.4,5.3,3.4,9.1,6.2,11.4c2.7,2.3,5.6,3.4,8.5,3.4c2.4,0,4.6-0.5,6.4-1.6
		c1.9-1,3.3-2.5,4.4-4.4c1.1-1.9,1.6-4.1,1.6-6.7c0-2.8-0.5-5.1-1.4-6.9c-0.9-1.8-2.3-3.3-4-4.6c-1.7-1.3-3.8-2.7-6.3-4.2
		c-2.7-1.7-5.3-3.5-8-5.2c-2.6-1.8-4.8-3.8-6.5-6.1c-1.7-2.3-2.6-5.1-2.6-8.4c0-3.5,0.8-6.7,2.4-9.5c1.6-2.8,4-5.1,7.2-6.8
		c3.2-1.7,7.2-2.5,12.1-2.5c2.5,0,4.6,0.3,6.5,0.8c1.8,0.5,3.3,1,4.4,1.5c0.6,0.2,1,0.6,1.4,1c0.4,0.5,0.6,1,0.8,1.6
		c0.4,1.4,0.9,3.1,1.3,5c0.5,1.9,0.7,3.6,0.7,5.3c0,0.8-0.5,1.1-1.6,1.1c-0.6,0-1.2-0.1-1.8-0.4c-0.6-0.3-0.9-0.6-1.1-1
		c-1.4-3.7-3.1-6.4-5.1-8.4c-1.9-1.9-4.4-2.9-7.3-2.9c-2.1,0-4,0.4-5.8,1.1c-1.8,0.8-3.3,2-4.4,3.7c-1.1,1.7-1.7,4-1.7,6.9
		c0,2.1,0.7,3.9,2,5.6c1.3,1.7,3.1,3.3,5.3,4.8c2.2,1.5,4.6,3.1,7.1,4.7c2.4,1.4,4.8,3,7.1,4.8c2.3,1.7,4.2,3.8,5.7,6.2
		c1.5,2.4,2.2,5.3,2.2,8.7c0,4.1-0.9,7.6-2.8,10.7c-1.9,3.1-4.5,5.4-7.9,7.1C711.1,430.3,707.1,431.1,702.5,431.1z"/>
</g>
</svg>
