<?xml version="1.0" encoding="UTF-8"?><svg id="Layer_1" xmlns="http://www.w3.org/2000/svg" viewBox="0 0 18.15 18.15"><defs><style>.cls-1{fill:#8eb19f;}</style></defs><path class="cls-1" d="m13.88,18.15H4.27c-2.36,0-4.27-1.92-4.27-4.28V4.27C0,1.92,1.92,0,4.27,0h9.6c2.36,0,4.27,1.92,4.27,4.27v9.59c0,2.36-1.92,4.28-4.27,4.28ZM4.27,1c-1.81,0-3.27,1.47-3.27,3.27v9.59c0,1.81,1.47,3.28,3.27,3.28h9.6c1.81,0,3.27-1.47,3.27-3.28V4.27c0-1.81-1.47-3.27-3.27-3.27H4.27Z"/><path class="cls-1" d="m9.08,6.09c-1.65,0-2.99,1.34-2.99,2.99s1.34,2.99,2.99,2.99,2.99-1.34,2.99-2.99-1.34-2.99-2.99-2.99Zm0,4.98c-1.1,0-1.99-.89-1.99-1.99s.89-1.99,1.99-1.99,1.99.89,1.99,1.99-.89,1.99-1.99,1.99Z"/><path class="cls-1" d="m12.19,5.2c-.4,0-.72.32-.72.72s.32.72.72.72.72-.32.72-.72-.32-.72-.72-.72Z"/><path class="cls-1" d="m11.59,3.24h-5.03c-1.83,0-3.32,1.49-3.32,3.32v5.03c0,1.83,1.49,3.32,3.32,3.32h5.03c1.83,0,3.32-1.49,3.32-3.32v-5.03c0-1.83-1.49-3.32-3.32-3.32Zm2.32,8.35c0,1.28-1.04,2.32-2.32,2.32h-5.03c-1.28,0-2.32-1.04-2.32-2.32v-5.03c0-1.28,1.04-2.32,2.32-2.32h5.03c1.28,0,2.32,1.04,2.32,2.32v5.03Z"/></svg>