<?xml version="1.0" encoding="UTF-8"?><svg id="Layer_1" xmlns="http://www.w3.org/2000/svg" viewBox="0 0 122.99 32.69"><defs><style>.cls-1{fill:#d2b180;}</style></defs><path class="cls-1" d="m14.37,28.99H.26c-.14,0-.26-.12-.26-.26s.12-.26.26-.26h14.12c.14,0,.26.12.26.26s-.12.26-.26.26Z"/><path class="cls-1" d="m122.74,28.99h-14.12c-.14,0-.26-.12-.26-.26s.12-.26.26-.26h14.12c.14,0,.26.12.26.26s-.12.26-.26.26Z"/><path class="cls-1" d="m.77,18.61h-.05c-.34,0-.63-.29-.63-.63V.89C.09.55.37.26.72.26c.37,0,.66.29.66.63v16.44h8.78c.37,0,.66.29.66.66,0,.34-.29.63-.66.63H.77Z"/><path class="cls-1" d="m24.88,13.87h-8.36l-1.63,4.33c-.1.26-.34.42-.6.42-.05,0-.16-.03-.24-.03-.31-.13-.5-.52-.37-.84L20.06.73c.1-.24.37-.39.63-.39.29,0,.55.16.63.39l6.37,17.01c.13.31-.03.71-.34.84-.1,0-.16.03-.24.03-.24,0-.5-.16-.6-.42l-1.62-4.33Zm-7.89-1.28h7.42l-3.7-9.86-3.72,9.86Z"/><path class="cls-1" d="m31.14.89c0-.34.29-.63.63-.63.37,0,.66.29.66.63v10.3c0,3.38,2.75,6.11,6.11,6.13,3.41-.03,6.16-2.75,6.16-6.13V.89c0-.34.29-.63.63-.63.37,0,.66.29.66.63v10.3c0,4.09-3.33,7.42-7.44,7.42s-7.39-3.33-7.39-7.42V.89Z"/><path class="cls-1" d="m60.92,14.47c0-1.34-.68-2.18-1.49-2.78-.81-.58-1.78-.87-2.12-.92-.08-.03-.1-.05-.13-.05h-4.46v7.26c0,.34-.29.63-.66.63-.34,0-.63-.29-.63-.63V.89c0-.32.26-.6.58-.63h5.24c2.88,0,5.22,2.33,5.22,5.24,0,2.1-1.23,3.91-3.01,4.75.08.05.16.08.26.13,1.21.68,2.46,2.02,2.46,4.09,0,1.07.1,1.73.24,2.12.11.31.24.42.26.45.29-.03.6.13.71.42.08.34-.08.71-.42.84-.03,0-.16.03-.31.03h-.05c-.34,0-.89-.26-1.18-.84-.31-.6-.5-1.47-.5-3.01Zm-3.67-12.92h-4.54v7.92h4.64c2.12-.05,3.85-1.81,3.85-3.96s-1.78-3.96-3.96-3.96Z"/><path class="cls-1" d="m68.17.89c0-.34.29-.63.63-.63h9.44c.37,0,.63.29.63.63,0,.37-.26.66-.63.66h-8.78v7.26h7.68c.34,0,.63.29.63.66,0,.34-.29.63-.63.63h-7.68v7.24h8.78c.37,0,.63.29.63.66,0,.34-.26.63-.63.63h-9.49c-.31-.03-.58-.29-.58-.63V.89Z"/><path class="cls-1" d="m85.05,2.96v15.02c0,.34-.29.63-.63.63s-.63-.29-.63-.63V1.15c-.08-.26,0-.52.24-.71.29-.18.71-.13.89.16l11.11,15.41V1.08c0-.34.29-.63.63-.63.37,0,.66.29.66.63v16.91c0,.34-.29.63-.66.63-.21,0-.37-.08-.5-.24-.03-.03-.08-.05-.11-.1l-11.01-15.31Z"/><path class="cls-1" d="m102.95,4.51c.94-.52,1.31-1.1,1.23-2.02-.39-.1-.71-.39-.71-.92v-.55c0-.47.39-.87.87-.87s.87.39.87.87v.66c0,1.47-.24,2.25-.71,2.73-.47.47-1.13.84-1.36.84-.18,0-.39-.13-.39-.39,0-.13.08-.26.21-.34Z"/><path class="cls-1" d="m109.11,15.18c.21-.26.58-.29.81-.08,1.36,1.1,3.64,2.39,6.03,2.36,1.6,0,3.04-.47,4.04-1.21,1.02-.73,1.57-1.7,1.57-2.73s-.5-1.83-1.5-2.52c-1-.66-2.46-1.15-4.25-1.49h-.05c-1.7-.31-3.2-.79-4.33-1.55-1.13-.73-1.89-1.83-1.89-3.2s.76-2.6,1.91-3.43,2.7-1.34,4.43-1.34c2.41,0,4.22,1.18,5.66,2.12.26.18.34.52.16.81-.16.26-.52.34-.79.16-1.44-.94-3.01-1.94-5.03-1.94-1.49,0-2.83.45-3.75,1.1-.92.68-1.44,1.57-1.44,2.52.03.92.45,1.6,1.36,2.23.92.63,2.28,1.08,3.93,1.39h.05c1.83.34,3.46.87,4.67,1.68,1.21.79,2.02,1.99,2.02,3.46s-.84,2.78-2.07,3.67c-1.23.89-2.88,1.44-4.72,1.44-2.8-.03-5.24-1.44-6.76-2.65-.24-.21-.26-.58-.08-.81Z"/><path class="cls-1" d="m19.79,32.68h-.02c-.15,0-.27-.13-.27-.27v-7.4c0-.15.12-.27.27-.27.16,0,.28.12.28.27v7.11h3.8c.16,0,.28.12.28.28,0,.15-.12.27-.28.27h-4.06Z"/><path class="cls-1" d="m29.42,25.01c0-.15.12-.27.27-.27.16,0,.28.12.28.27v7.4c0,.15-.12.27-.28.27-.15,0-.27-.13-.27-.27v-7.4Z"/><path class="cls-1" d="m36.2,25.01c0-.15.11-.26.26-.27h4.11c.15,0,.27.12.27.27,0,.16-.12.28-.27.28h-3.81v3.14h3.33c.16,0,.28.12.28.28,0,.15-.12.27-.28.27h-3.33v3.42c0,.15-.12.27-.28.27-.15,0-.27-.13-.27-.27v-7.4Z"/><path class="cls-1" d="m46.46,25.01c0-.15.12-.27.27-.27h4.08c.16,0,.27.12.27.27,0,.16-.11.28-.27.28h-3.8v3.14h3.32c.15,0,.27.12.27.28,0,.15-.12.27-.27.27h-3.32v3.13h3.8c.16,0,.27.12.27.28,0,.15-.11.27-.27.27h-4.11c-.14-.01-.25-.13-.25-.27v-7.4Z"/><path class="cls-1" d="m56.23,31.19c.09-.11.25-.12.35-.03.59.48,1.58,1.03,2.61,1.02.69,0,1.32-.2,1.75-.52.44-.32.68-.74.68-1.18s-.22-.79-.65-1.09c-.43-.28-1.07-.5-1.84-.65h-.02c-.74-.14-1.38-.34-1.87-.67-.49-.32-.82-.79-.82-1.38s.33-1.12.83-1.49c.5-.36,1.17-.58,1.92-.58,1.04,0,1.83.51,2.45.92.11.08.15.23.07.35-.07.11-.23.15-.34.07-.62-.41-1.3-.84-2.18-.84-.65,0-1.23.19-1.62.48-.4.29-.62.68-.62,1.09.01.4.19.69.59.96s.99.46,1.7.6h.02c.79.15,1.5.37,2.02.73.52.34.87.86.87,1.5s-.36,1.2-.9,1.59c-.53.39-1.25.62-2.04.62-1.21-.01-2.27-.62-2.93-1.15-.1-.09-.11-.25-.03-.35Z"/><path class="cls-1" d="m69.44,25.3h-2.39c-.15,0-.27-.12-.27-.28,0-.15.12-.27.27-.27h5.33c.15,0,.27.12.27.27,0,.16-.12.28-.27.28h-2.39v7.11c0,.15-.12.27-.27.27s-.27-.13-.27-.27v-7.11Z"/><path class="cls-1" d="m80.31,28.87l-2.67-3.64c-.08-.13-.06-.31.06-.39.12-.1.31-.08.39.05l2.48,3.41,2.5-3.41c.08-.12.26-.15.39-.05.12.08.15.26.06.39l-2.65,3.62v3.56c0,.15-.11.27-.27.27-.15,0-.27-.13-.27-.27v-3.54Z"/><path class="cls-1" d="m89.25,32.68h-.02c-.15,0-.27-.13-.27-.27v-7.4c0-.15.12-.27.27-.27.16,0,.28.12.28.27v7.11h3.8c.16,0,.28.12.28.28,0,.15-.12.27-.28.27h-4.06Z"/><path class="cls-1" d="m98.74,25.01c0-.15.12-.27.27-.27h4.08c.16,0,.27.12.27.27,0,.16-.11.28-.27.28h-3.8v3.14h3.32c.15,0,.27.12.27.28,0,.15-.12.27-.27.27h-3.32v3.13h3.8c.16,0,.27.12.27.28,0,.15-.11.27-.27.27h-4.11c-.14-.01-.25-.13-.25-.27v-7.4Z"/></svg>