<?xml version="1.0" encoding="UTF-8"?><svg id="Layer_1" xmlns="http://www.w3.org/2000/svg" viewBox="0 0 167 45"><defs><style>.cls-1{fill:#d2b180;}.cls-2{fill:#245441;}</style></defs><path class="cls-2" d="m1.29,25.69h-.07c-.46,0-.85-.39-.85-.85V1.67c0-.46.39-.85.85-.85.5,0,.89.39.89.85v22.28h11.91c.5,0,.89.39.89.89,0,.46-.39.85-.89.85H1.29Z"/><path class="cls-2" d="m33.98,19.26h-11.34l-2.2,5.86c-.14.35-.46.57-.82.57-.07,0-.21-.04-.32-.04-.43-.18-.68-.71-.5-1.14L27.44,1.46c.14-.32.5-.53.85-.53.39,0,.75.21.85.53l8.64,23.06c.18.43-.04.96-.46,1.14-.14,0-.21.04-.32.04-.32,0-.67-.21-.82-.57l-2.2-5.86Zm-10.7-1.74h10.06l-5.01-13.36-5.05,13.36Z"/><path class="cls-2" d="m42.48,1.67c0-.46.39-.85.85-.85.5,0,.89.39.89.85v13.97c0,4.58,3.73,8.28,8.28,8.32,4.62-.04,8.35-3.73,8.35-8.32V1.67c0-.46.39-.85.85-.85.5,0,.89.39.89.85v13.97c0,5.54-4.51,10.06-10.09,10.06s-10.02-4.51-10.02-10.06V1.67Z"/><path class="cls-2" d="m82.85,20.08c0-1.81-.92-2.95-2.03-3.77-1.1-.78-2.42-1.17-2.88-1.24-.11-.04-.14-.07-.18-.07h-6.04v9.84c0,.46-.39.85-.89.85-.46,0-.85-.39-.85-.85V1.67c0-.43.36-.82.78-.85h7.11c3.91,0,7.07,3.16,7.07,7.11,0,2.84-1.67,5.3-4.09,6.43.11.07.21.11.36.18,1.63.92,3.34,2.74,3.34,5.54,0,1.46.14,2.35.32,2.88.14.43.32.57.36.6.39-.04.82.18.96.57.11.46-.11.96-.57,1.14-.04,0-.21.04-.43.04h-.07c-.46,0-1.21-.35-1.6-1.14-.43-.82-.67-1.99-.67-4.09Zm-4.98-17.52h-6.15v10.73h6.29c2.88-.07,5.22-2.45,5.22-5.37s-2.42-5.37-5.37-5.37Z"/><path class="cls-2" d="m92.69,1.67c0-.46.39-.85.85-.85h12.79c.5,0,.85.39.85.85,0,.5-.36.89-.85.89h-11.91v9.84h10.41c.46,0,.85.39.85.89,0,.46-.39.85-.85.85h-10.41v9.81h11.91c.5,0,.85.39.85.89,0,.46-.36.85-.85.85h-12.87c-.43-.04-.78-.39-.78-.85V1.67Z"/><path class="cls-2" d="m115.58,4.48v20.36c0,.46-.39.85-.85.85s-.85-.39-.85-.85V2.03c-.11-.36,0-.71.32-.96.39-.25.96-.18,1.21.21l15.07,20.9V1.92c0-.46.39-.85.85-.85.5,0,.89.39.89.85v22.92c0,.46-.39.85-.89.85-.29,0-.5-.11-.68-.32-.04-.04-.11-.07-.14-.14l-14.93-20.75Z"/><path class="cls-2" d="m139.85,6.58c1.28-.71,1.78-1.49,1.67-2.74-.53-.14-.96-.53-.96-1.24v-.75c0-.64.53-1.17,1.17-1.17s1.17.53,1.17,1.17v.89c0,1.99-.32,3.06-.96,3.7-.64.64-1.53,1.14-1.85,1.14-.25,0-.53-.18-.53-.53,0-.18.11-.36.28-.46Z"/><path class="cls-2" d="m148.2,21.04c.28-.36.78-.39,1.1-.11,1.85,1.49,4.94,3.23,8.17,3.2,2.17,0,4.12-.64,5.47-1.63,1.39-1,2.13-2.31,2.13-3.7s-.68-2.49-2.03-3.41c-1.35-.89-3.34-1.56-5.76-2.03h-.07c-2.31-.43-4.33-1.07-5.86-2.1-1.53-1-2.56-2.49-2.56-4.34s1.03-3.52,2.59-4.66,3.66-1.81,6.01-1.81c3.27,0,5.72,1.6,7.68,2.88.36.25.46.71.21,1.1-.21.36-.71.46-1.07.21-1.95-1.28-4.09-2.63-6.82-2.63-2.03,0-3.84.6-5.08,1.49-1.24.92-1.95,2.13-1.95,3.41.04,1.24.6,2.17,1.85,3.02,1.24.85,3.09,1.46,5.33,1.88h.07c2.49.46,4.69,1.17,6.33,2.27,1.63,1.07,2.74,2.7,2.74,4.69s-1.14,3.77-2.81,4.98c-1.67,1.21-3.91,1.95-6.4,1.95-3.8-.04-7.11-1.95-9.17-3.59-.32-.28-.36-.78-.11-1.1Z"/><path class="cls-1" d="m27.09,44.77h-.03c-.2,0-.37-.17-.37-.37v-10.03c0-.2.17-.37.37-.37.22,0,.38.17.38.37v9.64h5.15c.22,0,.38.17.38.39,0,.2-.17.37-.38.37h-5.51Z"/><path class="cls-1" d="m40.14,34.37c0-.2.17-.37.37-.37.22,0,.38.17.38.37v10.03c0,.2-.17.37-.38.37-.2,0-.37-.17-.37-.37v-10.03Z"/><path class="cls-1" d="m49.34,34.37c0-.2.15-.35.35-.37h5.57c.2,0,.37.17.37.37,0,.22-.17.38-.37.38h-5.17v4.26h4.52c.22,0,.38.17.38.38,0,.2-.17.37-.38.37h-4.52v4.63c0,.2-.17.37-.38.37-.2,0-.37-.17-.37-.37v-10.03Z"/><path class="cls-1" d="m63.25,34.37c0-.2.17-.37.37-.37h5.54c.22,0,.37.17.37.37,0,.22-.15.38-.37.38h-5.15v4.26h4.51c.2,0,.37.17.37.38,0,.2-.17.37-.37.37h-4.51v4.25h5.15c.22,0,.37.17.37.39,0,.2-.15.37-.37.37h-5.57c-.18-.02-.34-.17-.34-.37v-10.03Z"/><path class="cls-1" d="m76.49,42.76c.12-.15.34-.17.48-.05.8.65,2.14,1.4,3.54,1.38.94,0,1.78-.28,2.37-.71.6-.43.92-1,.92-1.6s-.29-1.08-.88-1.48c-.58-.39-1.45-.68-2.49-.88h-.03c-1-.19-1.88-.46-2.54-.91-.66-.43-1.11-1.08-1.11-1.88s.45-1.52,1.12-2.02c.68-.49,1.58-.78,2.6-.78,1.41,0,2.48.69,3.32,1.25.15.11.2.31.09.48-.09.15-.31.2-.46.09-.85-.55-1.77-1.14-2.95-1.14-.88,0-1.66.26-2.2.65-.54.4-.85.92-.85,1.48.02.54.26.94.8,1.31s1.34.63,2.31.82h.03c1.08.2,2.03.51,2.74.98.71.46,1.18,1.17,1.18,2.03s-.49,1.63-1.22,2.15c-.72.52-1.69.85-2.77.85-1.65-.02-3.08-.85-3.97-1.55-.14-.12-.15-.34-.05-.48Z"/><path class="cls-1" d="m94.4,34.76h-3.25c-.2,0-.37-.17-.37-.38,0-.2.17-.37.37-.37h7.23c.2,0,.37.17.37.37,0,.22-.17.38-.37.38h-3.25v9.65c0,.2-.17.37-.37.37s-.37-.17-.37-.37v-9.65Z"/><path class="cls-1" d="m109.15,39.6l-3.62-4.94c-.11-.17-.08-.42.08-.52.17-.14.42-.11.52.06l3.37,4.63,3.38-4.63c.11-.17.35-.2.52-.06.17.11.2.35.08.52l-3.6,4.91v4.83c0,.2-.15.37-.37.37-.2,0-.37-.17-.37-.37v-4.8Z"/><path class="cls-1" d="m121.27,44.77h-.03c-.2,0-.37-.17-.37-.37v-10.03c0-.2.17-.37.37-.37.22,0,.38.17.38.37v9.64h5.15c.22,0,.38.17.38.39,0,.2-.17.37-.38.37h-5.51Z"/><path class="cls-1" d="m134.14,34.37c0-.2.17-.37.37-.37h5.54c.22,0,.37.17.37.37,0,.22-.15.38-.37.38h-5.15v4.26h4.51c.2,0,.37.17.37.38,0,.2-.17.37-.37.37h-4.51v4.25h5.15c.22,0,.37.17.37.39,0,.2-.15.37-.37.37h-5.57c-.18-.02-.34-.17-.34-.37v-10.03Z"/></svg>